<svg width="24" height="24" viewBox="0 0 24 24" fill="none" xmlns="http://www.w3.org/2000/svg">
    <path id="mail" d="M4 4C3.07 4 2.29231 4.64291 2.07031 5.50391L12 11.7266L21.9355 5.52148C21.7195 4.65048 20.937 4 20 4H4ZM2 7.73438V18C2 19.103 2.897 20 4 20H20C21.103 20 22 19.103 22 18V7.75586L12 14L2 7.73438Z"/>

    <path id="instagram" d="M8 3C5.239 3 3 5.239 3 8V16C3 18.761 5.239 21 8 21H16C18.761 21 21 18.761 21 16V8C21 5.239 18.761 3 16 3H8ZM18 5C18.552 5 19 5.448 19 6C19 6.552 18.552 7 18 7C17.448 7 17 6.552 17 6C17 5.448 17.448 5 18 5ZM12 7C14.761 7 17 9.239 17 12C17 14.761 14.761 17 12 17C9.239 17 7 14.761 7 12C7 9.239 9.239 7 12 7ZM12 9C11.2044 9 10.4413 9.31607 9.87868 9.87868C9.31607 10.4413 9 11.2044 9 12C9 12.7956 9.31607 13.5587 9.87868 14.1213C10.4413 14.6839 11.2044 15 12 15C12.7956 15 13.5587 14.6839 14.1213 14.1213C14.6839 13.5587 15 12.7956 15 12C15 11.2044 14.6839 10.4413 14.1213 9.87868C13.5587 9.31607 12.7956 9 12 9Z"/>

    <path id="phone" d="M20.023 15.488C19.393 15.473 18.6 15.436 18.099 15.348C17.557 15.252 16.905 15.066 16.446 14.923C16.086 14.811 15.694 14.91 15.427 15.176L13.21 17.38C11.678 16.573 10.451 15.633 9.412 14.588C8.367 13.549 7.427 12.322 6.62 10.79L8.824 8.572C9.09 8.305 9.189 7.913 9.077 7.553C8.935 7.095 8.748 6.443 8.653 5.901C8.564 5.4 8.528 4.607 8.512 3.977C8.499 3.432 8.055 3 7.51 3H4C3.562 3 3 3.328 3 4C3 8.539 4.84 12.874 7.966 16.034C11.126 19.16 15.461 21 20 21C20.672 21 21 20.438 21 20V16.49C21 15.945 20.568 15.501 20.023 15.488Z"/>

    <path id="twitter" d="M22 3.99899C21.22 4.46199 19.655 5.09299 18.735 5.27499C18.708 5.28199 18.686 5.29099 18.66 5.29799C17.847 4.49599 16.733 3.99899 15.5 3.99899C13.015 3.99899 11 6.01399 11 8.49899C11 8.62999 10.989 8.87099 11 8.99899C7.647 8.99899 5.095 7.24299 3.265 4.99899C3.066 5.49899 2.979 6.28899 2.979 7.03099C2.979 8.43199 4.074 9.80799 5.779 10.661C5.465 10.742 5.119 10.8 4.759 10.8C4.178 10.8 3.563 10.647 3 10.183C3 10.2 3 10.216 3 10.234C3 12.192 5.078 13.525 6.926 13.896C6.551 14.117 5.795 14.139 5.426 14.139C5.166 14.139 4.246 14.02 4 13.974C4.514 15.579 6.368 16.481 8.135 16.513C6.753 17.597 5.794 17.999 2.964 17.999H2C3.788 19.145 6.065 20 8.347 20C15.777 20 20 14.337 20 8.99899C20 8.91299 19.998 8.73299 19.995 8.55199C19.995 8.53399 20 8.51699 20 8.49899C20 8.47199 19.992 8.44599 19.992 8.41899C19.989 8.28299 19.986 8.15599 19.983 8.08999C20.773 7.51999 21.458 6.80899 22 5.99899C21.275 6.32099 20.497 6.53699 19.68 6.63499C20.514 6.13499 21.699 4.94299 22 3.99899Z"/>

    <path id="github" d="M10.9 2.10001C6.29999 2.60001 2.59999 6.30001 2.09999 10.8C1.59999 15.5 4.29999 19.7 8.39999 21.3C8.69999 21.4 8.99999 21.2 8.99999 20.8V19.2C8.99999 19.2 8.59999 19.3 8.09999 19.3C6.69999 19.3 6.09999 18.1 5.99999 17.4C5.89999 17 5.69999 16.7 5.39999 16.4C5.09999 16.3 4.99999 16.3 4.99999 16.2C4.99999 16 5.29999 16 5.39999 16C5.99999 16 6.49999 16.7 6.69999 17C7.19999 17.8 7.79999 18 8.09999 18C8.49999 18 8.79999 17.9 8.99999 17.8C9.09999 17.1 9.39999 16.4 9.99999 16C7.69999 15.5 5.99999 14.2 5.99999 12C5.99999 10.9 6.49999 9.80001 7.19999 9.00001C7.09999 8.80001 6.99999 8.30001 6.99999 7.60001C6.99999 7.20001 6.99999 6.60001 7.29999 6.00001C7.29999 6.00001 8.69999 6.00001 10.1 7.30001C10.6 7.10001 11.3 7.00001 12 7.00001C12.7 7.00001 13.4 7.10001 14 7.30001C15.3 6.00001 16.8 6.00001 16.8 6.00001C17 6.60001 17 7.20001 17 7.60001C17 8.40001 16.9 8.80001 16.8 9.00001C17.5 9.80001 18 10.8 18 12C18 14.2 16.3 15.5 14 16C14.6 16.5 15 17.4 15 18.3V20.9C15 21.2 15.3 21.5 15.7 21.4C19.4 19.9 22 16.3 22 12.1C22 6.10001 16.9 1.40001 10.9 2.10001Z"/>
</svg>
